<svg xmlns="http://www.w3.org/2000/svg" version="1.1" xmlns:xlink="http://www.w3.org/1999/xlink" xmlns:svgjs="http://svgjs.dev/svgjs" viewBox="0 0 9.843082760521941 11.67080680989278"><g transform="matrix(1,0,0,1,0.8925234359250336,8.120987220121592)"><rect width="11.67080680989278" height="11.67080680989278" x="-1.8063854606104526" y="-8.120987220121592" fill="#ffffff"></rect><g><path d=" M 1.353 1.377 Q 1.3185 1.377 1.2885 1.359 Q 1.2015 1.3005 1.158 1.116 Q 1.1475 1.0710000000000002 1.14075 1.02525 Q 1.1340000000000001 0.9795 1.1280000000000001 0.933 Q 1.1145 0.7935000000000001 1.1145 0.657 Q 1.1145 0.639 1.1145 0.6202500000000001 Q 1.1145 0.6015 1.1145 0.5850000000000001 Q 1.062 0.6705000000000001 1.002 0.7522500000000001 Q 0.9420000000000001 0.8340000000000001 0.8835000000000001 0.9045000000000001 Q 0.843 0.9525000000000001 0.78825 1.0065 Q 0.7335 1.0605 0.67275 1.1055000000000001 Q 0.612 1.1505 0.552 1.1775 Q 0.528 1.1880000000000002 0.5055000000000001 1.1932500000000001 Q 0.483 1.1985000000000001 0.4635 1.1985000000000001 Q 0.417 1.1985000000000001 0.38925 1.1700000000000002 Q 0.3615 1.1415 0.3615 1.092 Q 0.3615 1.044 0.3885 0.9840000000000001 Q 0.4035 0.9570000000000001 0.4335 0.9015000000000001 Q 0.4635 0.8460000000000001 0.501 0.7770000000000001 L 0.66 0.4890000000000001 Q 0.6930000000000001 0.4305 0.729 0.36150000000000004 Q 0.765 0.2925000000000001 0.79425 0.22950000000000004 Q 0.8235 0.1665000000000001 0.8325 0.12149999999999994 Q 0.8130000000000001 0.15450000000000008 0.789 0.19125000000000003 Q 0.765 0.2280000000000001 0.7395 0.26550000000000007 L 0.6975 0.32700000000000007 Q 0.6615 0.37950000000000006 0.62175 0.43800000000000006 Q 0.582 0.49650000000000005 0.5415 0.5505000000000001 Q 0.501 0.6045 0.462 0.645 Q 0.2895 0.8310000000000001 0.09 0.8310000000000001 Q 0.0315 0.8310000000000001 -0.00675 0.789 Q -0.045 0.7470000000000001 -0.045 0.6960000000000001 Q -0.045 0.666 -0.0315 0.6420000000000001 Q -0.018000000000000002 0.6090000000000001 0.0165 0.5715 Q 0.051000000000000004 0.534 0.093 0.501 Q 0.135 0.4680000000000001 0.168 0.4545 Q 0.17550000000000002 0.45000000000000007 0.1785 0.45000000000000007 Q 0.1875 0.45000000000000007 0.1875 0.4590000000000001 Q 0.1875 0.4680000000000001 0.177 0.4740000000000001 Q 0.1605 0.4920000000000001 0.13575 0.52575 Q 0.111 0.5595 0.08775000000000001 0.5985 Q 0.0645 0.6375000000000001 0.051000000000000004 0.675 Q 0.0405 0.7110000000000001 0.0405 0.738 Q 0.0405 0.792 0.084 0.792 Q 0.14250000000000002 0.792 0.21 0.7515000000000001 Q 0.279 0.7095 0.35025 0.6435000000000001 Q 0.4215 0.5775 0.4905 0.495 Q 0.525 0.45300000000000007 0.55875 0.4125000000000001 Q 0.5925 0.372 0.6225 0.3330000000000001 Q 0.6405 0.30900000000000005 0.6615 0.2835000000000001 Q 0.6825 0.258 0.7020000000000001 0.2310000000000001 Q 0.738 0.1845 0.771 0.14325 Q 0.804 0.10200000000000009 0.8235 0.07800000000000007 Q 0.8280000000000001 0.07350000000000012 0.8325 0.06899999999999995 Q 0.837 0.0645 0.84 0.058499999999999996 Q 0.8475 0.0495000000000001 0.855 0.0495000000000001 Q 0.864 0.0495000000000001 0.873 0.06000000000000005 Q 0.9135 0.10499999999999998 0.9135 0.17700000000000005 Q 0.9135 0.2955000000000001 0.804 0.49050000000000005 Q 0.777 0.5385000000000001 0.744 0.5955 Q 0.711 0.6525000000000001 0.678 0.7080000000000001 Q 0.6375000000000001 0.7770000000000001 0.603 0.8355000000000001 Q 0.5685 0.894 0.5535 0.924 Q 0.54 0.9540000000000001 0.5235 0.99 Q 0.507 1.026 0.495 1.05975 Q 0.483 1.0935000000000001 0.483 1.116 Q 0.483 1.1415 0.504 1.1415 Q 0.5175 1.1415 0.5445 1.1295000000000002 Q 0.5835 1.113 0.62775 1.0762500000000002 Q 0.672 1.0395 0.71625 0.99375 Q 0.7605000000000001 0.9480000000000001 0.7995 0.903 Q 0.8385 0.8580000000000001 0.864 0.8250000000000001 Q 0.93 0.7425 0.9975 0.6525000000000001 Q 1.065 0.5625 1.1205 0.4710000000000001 Q 1.122 0.4185000000000001 1.12725 0.38175000000000003 Q 1.1325 0.3450000000000001 1.1355 0.32400000000000007 Q 1.143 0.29400000000000004 1.161 0.28125 Q 1.179 0.26850000000000007 1.1985000000000001 0.26850000000000007 Q 1.224 0.26850000000000007 1.24425 0.2895000000000001 Q 1.2645 0.3105 1.2570000000000001 0.34950000000000003 Q 1.2495 0.39150000000000007 1.2397500000000001 0.47550000000000003 Q 1.23 0.5595 1.22325 0.66 Q 1.2165 0.7605000000000001 1.2165 0.8565 Q 1.2165 0.8760000000000001 1.2165 0.894 Q 1.2165 0.912 1.218 0.93 Q 1.2315 1.3275000000000001 1.362 1.3275000000000001 Q 1.3755 1.3275000000000001 1.3905 1.323 Q 1.4295 1.3125 1.4715 1.2675 Q 1.5150000000000001 1.221 1.554 1.15125 Q 1.593 1.0815000000000001 1.6260000000000001 0.9945 Q 1.6425 0.9510000000000001 1.65675 0.90375 Q 1.671 0.8565 1.6815 0.807 Q 1.7115 0.6645000000000001 1.7115 0.534 Q 1.7115 0.501 1.70925 0.46950000000000003 Q 1.707 0.43800000000000006 1.704 0.40800000000000003 Q 1.698 0.37050000000000005 1.6875 0.32400000000000007 Q 1.677 0.2775000000000001 1.6560000000000001 0.23850000000000005 Q 1.635 0.1995 1.6005 0.1995 Q 1.56 0.1995 1.5165 0.252 Q 1.5075 0.26550000000000007 1.4985 0.26550000000000007 Q 1.491 0.26550000000000007 1.491 0.25350000000000006 Q 1.491 0.24150000000000005 1.497 0.2280000000000001 Q 1.5015 0.21450000000000002 1.52025 0.1965 Q 1.539 0.1785 1.5622500000000001 0.1635000000000001 Q 1.5855000000000001 0.14850000000000008 1.602 0.14400000000000002 Q 1.6185 0.13950000000000007 1.6335 0.138 Q 1.6485 0.13650000000000007 1.6620000000000001 0.13650000000000007 Q 1.827 0.13650000000000007 1.827 0.399 Q 1.827 0.43800000000000006 1.8225 0.4860000000000001 Q 1.8165 0.5565 1.8022500000000001 0.6322500000000001 Q 1.788 0.7080000000000001 1.77 0.77925 Q 1.752 0.8505 1.734 0.909 Q 1.716 0.9675 1.7025000000000001 1.0050000000000001 Q 1.6695 1.0875000000000001 1.623 1.1640000000000001 Q 1.5765 1.2405000000000002 1.5210000000000001 1.29525 Q 1.4655 1.35 1.401 1.3695000000000002 Q 1.389 1.374 1.377 1.3755000000000002 Q 1.365 1.377 1.353 1.377 M 2.148010986328125 0.48450000000000004 Q 2.1285109863281253 0.48450000000000004 2.1150109863281252 0.47175 Q 2.101510986328125 0.4590000000000001 2.101510986328125 0.4395 Q 2.101510986328125 0.41400000000000003 2.119510986328125 0.396 Q 2.137510986328125 0.378 2.161510986328125 0.378 Q 2.1855109863281252 0.378 2.1982609863281253 0.3945000000000001 Q 2.2110109863281253 0.41100000000000003 2.208010986328125 0.4335 Q 2.202010986328125 0.45600000000000007 2.1855109863281252 0.47025000000000006 Q 2.169010986328125 0.48450000000000004 2.148010986328125 0.48450000000000004 M 1.905010986328125 1.1400000000000001 Q 1.8630109863281252 1.1400000000000001 1.841260986328125 1.11225 Q 1.8195109863281251 1.0845 1.8195109863281251 1.0350000000000001 Q 1.8195109863281251 1.0125000000000002 1.824010986328125 0.9855 Q 1.830010986328125 0.9540000000000001 1.847260986328125 0.9097500000000001 Q 1.864510986328125 0.8655 1.887010986328125 0.8205 Q 1.9095109863281252 0.7755000000000001 1.9275109863281252 0.744 Q 1.9440109863281252 0.7155 1.9672609863281252 0.6772500000000001 Q 1.9905109863281252 0.639 2.005510986328125 0.6120000000000001 Q 2.017510986328125 0.5925 2.0220109863281253 0.5880000000000001 Q 2.032510986328125 0.5670000000000001 2.061010986328125 0.55425 Q 2.089510986328125 0.5415000000000001 2.113510986328125 0.5415000000000001 Q 2.145010986328125 0.5415000000000001 2.145010986328125 0.561 Q 2.145010986328125 0.5700000000000001 2.136010986328125 0.5835 Q 2.107510986328125 0.63 2.0692609863281253 0.69075 Q 2.031010986328125 0.7515000000000001 1.9950109863281251 0.8160000000000001 Q 1.959010986328125 0.8805000000000001 1.935760986328125 0.93825 Q 1.912510986328125 0.996 1.912510986328125 1.0365 Q 1.912510986328125 1.0785 1.9440109863281252 1.0785 Q 1.965010986328125 1.0785 1.9950109863281251 1.056 Q 2.025010986328125 1.0335 2.053510986328125 1.0050000000000001 Q 2.0820109863281253 0.9765 2.097010986328125 0.9600000000000001 L 2.1270109863281252 0.9285000000000001 Q 2.134510986328125 0.921 2.1405109863281253 0.9127500000000001 Q 2.146510986328125 0.9045000000000001 2.1525109863281253 0.897 Q 2.157010986328125 0.8895000000000001 2.164510986328125 0.8895000000000001 Q 2.182510986328125 0.8895000000000001 2.182510986328125 0.9105000000000001 Q 2.182510986328125 0.921 2.1750109863281253 0.9285000000000001 Q 2.158510986328125 0.9495 2.142010986328125 0.9690000000000001 Q 2.125510986328125 0.9885 2.107510986328125 1.008 Q 2.0820109863281253 1.038 2.050510986328125 1.06875 Q 2.019010986328125 1.0995000000000001 1.9830109863281251 1.11975 Q 1.947010986328125 1.1400000000000001 1.905010986328125 1.1400000000000001 M 2.1404868164062503 1.4040000000000001 Q 2.10298681640625 1.4040000000000001 2.0827368164062503 1.3747500000000001 Q 2.0624868164062504 1.3455000000000001 2.0624868164062504 1.2945 Q 2.0624868164062504 1.2825 2.06398681640625 1.2675 Q 2.06548681640625 1.2525 2.06848681640625 1.2375 Q 2.0939868164062503 1.0995000000000001 2.1457368164062505 0.9480000000000001 Q 2.19748681640625 0.7965 2.27548681640625 0.6465000000000001 Q 2.2334868164062502 0.66 2.1982368164062502 0.666 Q 2.1629868164062502 0.672 2.13448681640625 0.672 Q 2.10148681640625 0.672 2.0864868164062504 0.6637500000000001 Q 2.0714868164062503 0.6555 2.0714868164062503 0.6480000000000001 Q 2.0714868164062503 0.633 2.10148681640625 0.633 Q 2.1089868164062504 0.633 2.1164868164062502 0.63375 Q 2.12398681640625 0.6345000000000001 2.1299868164062503 0.6345000000000001 Q 2.19748681640625 0.6345000000000001 2.30098681640625 0.5940000000000001 Q 2.3879868164062503 0.4365 2.48698681640625 0.30525 Q 2.5859868164062503 0.17400000000000004 2.6924868164062503 0.07650000000000001 Q 2.73598681640625 0.03750000000000009 2.7772368164062504 0.018750000000000044 Q 2.81848681640625 0 2.85148681640625 0 Q 2.8904868164062503 0 2.9167368164062504 0.026250000000000107 Q 2.9429868164062505 0.05249999999999999 2.9429868164062505 0.1080000000000001 Q 2.9429868164062505 0.138 2.9294868164062504 0.1725000000000001 Q 2.8904868164062503 0.27 2.7764868164062504 0.366 Q 2.74798681640625 0.39 2.7179868164062504 0.4125000000000001 Q 2.68798681640625 0.43500000000000005 2.6579868164062503 0.45600000000000007 Q 2.59498681640625 0.498 2.5267368164062503 0.5355000000000001 Q 2.4584868164062503 0.5730000000000001 2.39248681640625 0.6000000000000001 Q 2.29048681640625 0.7770000000000001 2.23048681640625 0.9450000000000001 Q 2.1659868164062503 1.1295000000000002 2.1629868164062502 1.26 Q 2.1629868164062502 1.32 2.1899868164062504 1.32 Q 2.1989868164062503 1.32 2.20948681640625 1.3155000000000001 Q 2.21998681640625 1.311 2.2349868164062503 1.3050000000000002 Q 2.2799868164062502 1.278 2.31298681640625 1.2495 Q 2.34598681640625 1.221 2.3789868164062504 1.1835 Q 2.3909868164062504 1.1700000000000002 2.4097368164062503 1.1475 Q 2.42848681640625 1.125 2.4509868164062505 1.0965 Q 2.47798681640625 1.0635000000000001 2.5072368164062504 1.0275 Q 2.53648681640625 0.9915 2.5619868164062503 0.9615 Q 2.5919868164062505 0.9255 2.6219868164062503 0.8925000000000001 Q 2.62798681640625 0.885 2.6354868164062504 0.885 Q 2.65348681640625 0.885 2.65348681640625 0.9045000000000001 Q 2.65348681640625 0.915 2.6444868164062503 0.924 Q 2.62798681640625 0.9450000000000001 2.6092368164062503 0.9675 Q 2.5904868164062504 0.99 2.5739868164062503 1.0095 Q 2.5649868164062504 1.02 2.5387368164062503 1.05075 Q 2.51248681640625 1.0815000000000001 2.47798681640625 1.1235000000000002 Q 2.4464868164062503 1.161 2.4127368164062504 1.20225 Q 2.3789868164062504 1.2435 2.3504868164062502 1.2765 Q 2.32198681640625 1.3095 2.3039868164062502 1.3275000000000001 Q 2.2229868164062503 1.4040000000000001 2.1404868164062503 1.4040000000000001 M 2.81848681640625 0.06899999999999995 Q 2.7254868164062502 0.14250000000000007 2.6242368164062504 0.264 Q 2.52298681640625 0.38550000000000006 2.43148681640625 0.5355000000000001 Q 2.50198681640625 0.49950000000000006 2.5747368164062503 0.4507500000000001 Q 2.6474868164062504 0.402 2.71198681640625 0.34650000000000003 Q 2.7764868164062504 0.29100000000000004 2.8229868164062504 0.23325000000000007 Q 2.8694868164062504 0.1755 2.88748681640625 0.12149999999999994 Q 2.8934868164062504 0.10350000000000015 2.8934868164062504 0.08699999999999997 Q 2.8934868164062504 0.0495000000000001 2.86348681640625 0.0495000000000001 Q 2.8424868164062502 0.0495000000000001 2.81848681640625 0.06899999999999995 M 2.8800249023437505 1.359 Q 2.84702490234375 1.359 2.82377490234375 1.3342500000000002 Q 2.80052490234375 1.3095 2.8050249023437503 1.2630000000000001 Q 2.8110249023437506 1.215 2.8380249023437503 1.1407500000000002 Q 2.8650249023437504 1.0665 2.9040249023437505 0.9750000000000001 Q 2.8740249023437503 1.0185 2.8372749023437502 1.0575 Q 2.80052490234375 1.0965 2.7600249023437504 1.12125 Q 2.71952490234375 1.1460000000000001 2.6775249023437504 1.1460000000000001 Q 2.5845249023437504 1.1460000000000001 2.5845249023437504 1.0575 Q 2.5845249023437504 1.0515 2.5845249023437504 1.0455 Q 2.5845249023437504 1.0395 2.5860249023437505 1.0335 Q 2.59052490234375 0.996 2.6100249023437505 0.9480000000000001 Q 2.6295249023437504 0.9 2.6445249023437505 0.8760000000000001 Q 2.68352490234375 0.8145 2.7397749023437505 0.75525 Q 2.7960249023437505 0.6960000000000001 2.85977490234375 0.657 Q 2.9235249023437504 0.6180000000000001 2.9835249023437505 0.6180000000000001 Q 3.0210249023437505 0.6180000000000001 3.0570249023437506 0.633 Q 3.0915249023437505 0.5625 3.1260249023437505 0.49950000000000006 Q 3.1605249023437505 0.4365 3.1890249023437502 0.39 Q 3.2385249023437503 0.3045 3.2805249023437506 0.25875000000000004 Q 3.3225249023437504 0.21300000000000008 3.36377490234375 0.1935 Q 3.4050249023437504 0.17400000000000004 3.4485249023437503 0.16800000000000004 L 3.45602490234375 0.18000000000000005 Q 3.3555249023437503 0.3075 3.2775249023437505 0.4297500000000001 Q 3.19952490234375 0.552 3.1260249023437505 0.6930000000000001 Q 3.12752490234375 0.6975 3.12752490234375 0.7065000000000001 Q 3.12752490234375 0.732 3.10502490234375 0.7365 Q 3.0885249023437504 0.768 3.0645249023437504 0.8175000000000001 Q 3.0405249023437504 0.867 3.0142749023437503 0.927 Q 2.98802490234375 0.9870000000000001 2.9632749023437506 1.04925 Q 2.9385249023437505 1.1115000000000002 2.9220249023437503 1.1655 Q 2.9115249023437504 1.203 2.9047749023437506 1.2255 Q 2.8980249023437503 1.248 2.8980249023437503 1.26 Q 2.8980249023437503 1.2885 2.96402490234375 1.218 L 3.03452490234375 1.143 Q 3.0510249023437503 1.1265 3.0630249023437504 1.113 Q 3.0750249023437504 1.0995000000000001 3.08252490234375 1.0905 L 3.1935249023437504 0.9615 Q 3.2085249023437505 0.9435 3.22352490234375 0.92625 Q 3.2385249023437503 0.909 3.2520249023437504 0.8925000000000001 Q 3.2580249023437506 0.885 3.2670249023437505 0.885 Q 3.2835249023437503 0.885 3.2835249023437503 0.903 Q 3.2835249023437503 0.912 3.2745249023437504 0.924 Q 3.2595249023437503 0.9450000000000001 3.2407749023437504 0.9675 Q 3.22202490234375 0.99 3.2055249023437504 1.0095 Q 3.2010249023437503 1.014 3.1800249023437503 1.0395 Q 3.1590249023437504 1.065 3.1305249023437502 1.10175 Q 3.1020249023437505 1.1385 3.0720249023437503 1.17825 Q 3.0420249023437504 1.218 3.0165249023437504 1.2510000000000001 Q 2.9910249023437503 1.284 2.9775249023437502 1.302 Q 2.9565249023437503 1.3305 2.93027490234375 1.3447500000000001 Q 2.9040249023437505 1.359 2.8800249023437505 1.359 M 2.6895249023437504 1.095 Q 2.7120249023437504 1.095 2.7585249023437504 1.0575 Q 2.7900249023437502 1.0335 2.8297749023437504 0.9922500000000001 Q 2.8695249023437506 0.9510000000000001 2.9047749023437506 0.9105000000000001 Q 2.94002490234375 0.8700000000000001 2.9565249023437503 0.8475 Q 2.9730249023437505 0.804 2.9940249023437504 0.75975 Q 3.0150249023437503 0.7155 3.0375249023437503 0.669 Q 3.0330249023437506 0.6675 3.0285249023437504 0.6667500000000001 Q 3.02402490234375 0.666 3.0195249023437505 0.666 Q 2.9820249023437504 0.666 2.9340249023437504 0.70125 Q 2.8860249023437503 0.7365 2.8455249023437506 0.78 Q 2.7960249023437505 0.8310000000000001 2.75402490234375 0.8925000000000001 Q 2.7120249023437504 0.9540000000000001 2.6910249023437505 1.008 Q 2.6730249023437502 1.05 2.6730249023437502 1.074 Q 2.6730249023437502 1.095 2.6895249023437504 1.095 M 3.8205153808593755 1.3755000000000002 Q 3.8145153808593757 1.3755000000000002 3.8100153808593755 1.3747500000000001 Q 3.805515380859376 1.374 3.8010153808593756 1.3725 Q 3.7785153808593757 1.3635000000000002 3.7740153808593755 1.323 Q 3.7725153808593754 1.314 3.7717653808593754 1.3035 Q 3.771015380859376 1.2930000000000001 3.771015380859376 1.2825 Q 3.771015380859376 1.2705000000000002 3.7717653808593754 1.25925 Q 3.7725153808593754 1.248 3.7740153808593755 1.236 Q 3.7770153808593756 1.197 3.7867653808593755 1.15575 Q 3.7965153808593755 1.1145 3.8115153808593756 1.0710000000000002 Q 3.8385153808593757 0.9915 3.8797653808593755 0.9 Q 3.9210153808593757 0.8085 3.9780153808593757 0.7050000000000001 L 4.081515380859376 0.5175000000000001 Q 4.120515380859375 0.44700000000000006 4.158015380859376 0.37875000000000003 Q 4.1955153808593755 0.3105 4.227015380859376 0.24750000000000005 Q 4.200015380859376 0.29400000000000004 4.1715153808593755 0.3435 Q 4.143015380859375 0.393 4.131015380859376 0.41100000000000003 Q 4.0560153808593755 0.5295000000000001 3.9750153808593756 0.6405000000000001 Q 3.8940153808593756 0.7515000000000001 3.7875153808593756 0.8280000000000001 Q 3.759015380859376 0.849 3.7185153808593756 0.8655 Q 3.6780153808593754 0.8820000000000001 3.6375153808593756 0.891 Q 3.5970153808593754 0.9 3.5670153808593756 0.9 Q 3.5205153808593757 0.897 3.4942653808593755 0.8632500000000001 Q 3.4680153808593754 0.8295000000000001 3.4680153808593754 0.78 Q 3.4680153808593754 0.7590000000000001 3.4732653808593756 0.7357500000000001 Q 3.478515380859376 0.7125000000000001 3.489015380859376 0.6885000000000001 Q 3.5070153808593756 0.651 3.5467653808593758 0.6015 Q 3.5865153808593755 0.552 3.6435153808593754 0.50475 Q 3.700515380859376 0.4575 3.7665153808593757 0.4275000000000001 Q 3.7695153808593758 0.4245000000000001 3.7755153808593755 0.4245000000000001 Q 3.7800153808593757 0.4245000000000001 3.782265380859376 0.42825 Q 3.7845153808593754 0.43200000000000005 3.7785153808593757 0.4395 L 3.7650153808593756 0.45600000000000007 Q 3.6210153808593755 0.5850000000000001 3.5655153808593756 0.7365 Q 3.5565153808593757 0.762 3.5527653808593755 0.7822500000000001 Q 3.549015380859376 0.8025 3.549015380859376 0.8175000000000001 Q 3.549015380859376 0.861 3.5850153808593754 0.8565 Q 3.6075153808593754 0.855 3.641265380859376 0.8385 Q 3.6750153808593757 0.8220000000000001 3.7080153808593757 0.8002500000000001 Q 3.7410153808593756 0.7785000000000001 3.7575153808593758 0.7650000000000001 Q 3.8265153808593757 0.7080000000000001 3.8947653808593756 0.62475 Q 3.9630153808593755 0.5415000000000001 4.026015380859375 0.45600000000000007 Q 4.047015380859376 0.4275000000000001 4.068765380859376 0.396 Q 4.090515380859376 0.36450000000000005 4.111515380859376 0.3345 Q 4.146015380859375 0.2865000000000001 4.176015380859376 0.243 Q 4.206015380859376 0.1995 4.227015380859376 0.1755 L 4.255515380859376 0.14400000000000002 Q 4.272015380859376 0.12749999999999995 4.294515380859376 0.12749999999999995 Q 4.326015380859376 0.12749999999999995 4.339515380859376 0.14625 Q 4.353015380859375 0.16500000000000004 4.353015380859375 0.18900000000000006 Q 4.353015380859375 0.21750000000000003 4.3380153808593755 0.243 Q 4.323015380859376 0.276 4.302765380859376 0.31200000000000006 Q 4.282515380859376 0.3480000000000001 4.260015380859375 0.387 Q 4.213515380859375 0.4650000000000001 4.164765380859375 0.55125 Q 4.116015380859376 0.6375000000000001 4.065015380859376 0.7290000000000001 Q 4.039515380859376 0.7755000000000001 4.016265380859376 0.8190000000000001 Q 3.993015380859376 0.8625 3.9720153808593754 0.906 Q 3.877515380859376 1.0965 3.852015380859376 1.2165000000000001 Q 3.8400153808593758 1.2690000000000001 3.8385153808593757 1.302 Q 3.8385153808593757 1.3035 3.8392653808593757 1.31775 Q 3.8400153808593758 1.332 3.8385153808593757 1.332 Q 3.8415153808593754 1.332 3.864015380859376 1.2870000000000001 Q 3.8865153808593758 1.242 3.9285153808593756 1.1415 L 3.993015380859376 0.99 Q 4.018515380859376 0.93 4.043265380859376 0.8715 Q 4.068015380859376 0.8130000000000001 4.087515380859376 0.768 Q 4.111515380859376 0.7140000000000001 4.147515380859375 0.63825 Q 4.183515380859376 0.5625 4.227015380859376 0.48450000000000004 Q 4.270515380859376 0.4065000000000001 4.3140153808593755 0.34950000000000003 Q 4.378515380859375 0.264 4.434015380859376 0.21075 Q 4.489515380859376 0.15750000000000008 4.5487653808593755 0.12975000000000003 Q 4.608015380859376 0.10200000000000009 4.680015380859375 0.09299999999999997 Q 4.686015380859375 0.09299999999999997 4.692015380859376 0.09224999999999994 Q 4.698015380859376 0.09150000000000014 4.704015380859376 0.09150000000000014 Q 4.792515380859376 0.09150000000000014 4.848765380859375 0.14850000000000008 Q 4.905015380859376 0.20550000000000002 4.905015380859376 0.29700000000000004 Q 4.908015380859376 0.393 4.840515380859376 0.48975 Q 4.773015380859375 0.5865 4.653015380859376 0.657 Q 4.576515380859376 0.7035 4.494765380859375 0.7335 Q 4.413015380859376 0.7635000000000001 4.333515380859375 0.774 Q 4.353015380859375 0.804 4.373265380859376 0.83925 Q 4.393515380859376 0.8745 4.4085153808593756 0.9075000000000001 Q 4.420515380859376 0.9255 4.4295153808593755 0.9435 Q 4.438515380859376 0.9615 4.447515380859375 0.9810000000000001 Q 4.462515380859376 1.0095 4.4782653808593755 1.0402500000000001 Q 4.494015380859375 1.0710000000000002 4.515015380859376 1.107 Q 4.561515380859376 1.1820000000000002 4.598265380859376 1.2225000000000001 Q 4.635015380859375 1.2630000000000001 4.659015380859376 1.2630000000000001 Q 4.674015380859376 1.2630000000000001 4.6875153808593755 1.224 Q 4.699515380859376 1.1880000000000002 4.701765380859376 1.1460000000000001 Q 4.704015380859376 1.104 4.704015380859376 1.0785 Q 4.704015380859376 1.0605 4.717515380859376 1.0605 Q 4.728015380859375 1.0605 4.731015380859375 1.077 Q 4.732515380859375 1.083 4.7362653808593755 1.0942500000000002 Q 4.740015380859376 1.1055000000000001 4.747515380859376 1.122 Q 4.761015380859376 1.1535 4.761015380859376 1.2000000000000002 Q 4.761015380859376 1.2465000000000002 4.732515380859375 1.28025 Q 4.704015380859376 1.314 4.657515380859376 1.3215000000000001 Q 4.648515380859376 1.323 4.639515380859375 1.32375 Q 4.630515380859376 1.3245 4.621515380859376 1.3245 Q 4.552515380859376 1.3245 4.504515380859376 1.284 Q 4.456515380859376 1.2435 4.419765380859376 1.1685 Q 4.3830153808593755 1.0935000000000001 4.344015380859376 0.9930000000000001 Q 4.318515380859376 0.9195000000000001 4.291515380859376 0.8640000000000001 Q 4.264515380859375 0.8085 4.239015380859375 0.78 Q 4.215015380859375 0.78 4.199265380859376 0.77775 Q 4.183515380859376 0.7755000000000001 4.174515380859376 0.774 L 4.1730153808593755 0.7725000000000001 Q 4.164015380859375 0.7635000000000001 4.161015380859376 0.7582500000000001 Q 4.158015380859376 0.7530000000000001 4.164015380859375 0.7455 Q 4.170015380859375 0.7275 4.190265380859375 0.7140000000000001 Q 4.210515380859375 0.7005000000000001 4.231515380859376 0.7005000000000001 Q 4.270515380859376 0.7005000000000001 4.303515380859376 0.7410000000000001 Q 4.378515380859375 0.732 4.447515380859375 0.6930000000000001 Q 4.516515380859376 0.654 4.591515380859375 0.5895 Q 4.653015380859376 0.537 4.701015380859376 0.48375 Q 4.749015380859376 0.4305 4.789515380859376 0.3480000000000001 Q 4.822515380859375 0.2775000000000001 4.822515380859375 0.2340000000000001 Q 4.822515380859375 0.15000000000000002 4.737015380859376 0.14550000000000007 Q 4.717515380859376 0.14550000000000007 4.694265380859376 0.14850000000000008 Q 4.671015380859376 0.15150000000000008 4.645515380859376 0.1605000000000001 Q 4.536015380859376 0.1965 4.4550153808593755 0.2865000000000001 Q 4.276515380859376 0.4890000000000001 4.147515380859375 0.7590000000000001 Q 4.140015380859376 0.7755000000000001 4.131765380859376 0.7965 Q 4.123515380859375 0.8175000000000001 4.113015380859376 0.8445 Q 4.107015380859376 0.8595 4.100265380859375 0.879 Q 4.093515380859376 0.8985000000000001 4.086015380859376 0.9195000000000001 Q 4.072515380859375 0.9600000000000001 4.0567653808593755 1.00275 Q 4.041015380859376 1.0455 4.029015380859375 1.08 Q 4.018515380859376 1.1115000000000002 4.005765380859375 1.1415 Q 3.993015380859376 1.1715 3.981015380859376 1.2000000000000002 Q 3.9210153808593757 1.3275000000000001 3.8715153808593756 1.359 Q 3.8430153808593754 1.3755000000000002 3.8205153808593755 1.3755000000000002 M 5.137549072265625 1.1460000000000001 Q 5.107549072265626 1.1460000000000001 5.088799072265626 1.1235000000000002 Q 5.0700490722656255 1.101 5.0700490722656255 1.0605 Q 5.0700490722656255 1.032 5.079049072265626 0.9990000000000001 Q 5.082049072265626 0.9870000000000001 5.094799072265626 0.9577500000000001 Q 5.107549072265626 0.9285000000000001 5.121049072265626 0.8985000000000001 Q 5.125549072265626 0.891 5.128549072265626 0.8835000000000001 Q 5.085049072265626 0.9405000000000001 5.032549072265626 0.98475 Q 4.980049072265626 1.0290000000000001 4.921549072265626 1.0290000000000001 Q 4.870549072265626 1.0275 4.849549072265626 1.00125 Q 4.828549072265626 0.9750000000000001 4.828549072265626 0.9375 Q 4.828549072265626 0.8955000000000001 4.847299072265626 0.8460000000000001 Q 4.866049072265626 0.7965 4.888549072265626 0.7590000000000001 Q 4.927549072265625 0.6975 4.983799072265626 0.63825 Q 5.040049072265626 0.5790000000000001 5.104549072265626 0.54 Q 5.169049072265626 0.501 5.227549072265626 0.501 Q 5.293549072265626 0.501 5.347549072265625 0.5445000000000001 Q 5.361049072265626 0.555 5.366299072265626 0.5670000000000001 Q 5.371549072265625 0.5790000000000001 5.371549072265625 0.5880000000000001 Q 5.371549072265625 0.6015 5.364049072265626 0.6105 Q 5.356549072265626 0.6195 5.346049072265625 0.6195 Q 5.329549072265626 0.6195 5.320549072265626 0.5955 Q 5.311549072265626 0.5700000000000001 5.296549072265626 0.5595 Q 5.2815490722656255 0.549 5.263549072265626 0.549 Q 5.227549072265626 0.549 5.181049072265626 0.5820000000000001 Q 5.134549072265626 0.6150000000000001 5.089549072265625 0.663 Q 5.037049072265626 0.7155 4.997299072265625 0.77775 Q 4.957549072265626 0.8400000000000001 4.936549072265626 0.891 Q 4.917049072265626 0.9345000000000001 4.917049072265626 0.9570000000000001 Q 4.917049072265626 0.9780000000000001 4.933549072265626 0.9780000000000001 Q 4.956049072265626 0.9780000000000001 5.002549072265626 0.9405000000000001 Q 5.035549072265626 0.915 5.073799072265626 0.8745 Q 5.112049072265625 0.8340000000000001 5.146549072265626 0.7935000000000001 Q 5.181049072265626 0.7530000000000001 5.200549072265626 0.7305 Q 5.208049072265625 0.7185 5.214799072265626 0.7080000000000001 Q 5.221549072265626 0.6975 5.227549072265626 0.6900000000000001 Q 5.244049072265626 0.6675 5.278549072265625 0.6675 Q 5.301049072265625 0.6675 5.316799072265626 0.678 Q 5.332549072265626 0.6885000000000001 5.325049072265625 0.7065000000000001 Q 5.320549072265626 0.7140000000000001 5.313049072265626 0.7282500000000001 Q 5.3055490722656256 0.7425 5.295049072265626 0.7635000000000001 Q 5.275549072265626 0.7995000000000001 5.251549072265625 0.8475 Q 5.227549072265626 0.8955000000000001 5.206549072265625 0.9375 Q 5.1855490722656254 0.9795 5.175049072265626 1.0035 Q 5.152549072265626 1.0485 5.152549072265626 1.068 Q 5.152549072265626 1.0815000000000001 5.1630490722656255 1.0815000000000001 Q 5.167549072265626 1.0815000000000001 5.174299072265626 1.0785 Q 5.181049072265626 1.0755000000000001 5.190049072265626 1.0710000000000002 Q 5.217049072265626 1.056 5.248549072265626 1.0290000000000001 Q 5.2800490722656255 1.002 5.316049072265626 0.9600000000000001 Q 5.332549072265626 0.9435 5.346049072265625 0.9277500000000001 Q 5.359549072265626 0.912 5.371549072265625 0.897 Q 5.376049072265626 0.8895000000000001 5.383549072265626 0.8895000000000001 Q 5.401549072265626 0.8895000000000001 5.401549072265626 0.9105000000000001 Q 5.401549072265626 0.921 5.394049072265625 0.9285000000000001 Q 5.377549072265626 0.9495 5.361049072265626 0.9690000000000001 Q 5.344549072265626 0.9885 5.3265490722656255 1.008 Q 5.310049072265626 1.0275 5.292799072265626 1.0470000000000002 Q 5.275549072265626 1.0665 5.2560490722656255 1.083 Q 5.223049072265626 1.116 5.192299072265626 1.131 Q 5.161549072265625 1.1460000000000001 5.137549072265625 1.1460000000000001 M 5.6850908203125 1.1415 Q 5.6310908203125 1.1415 5.6310908203125 1.068 Q 5.6310908203125 1.0170000000000001 5.6610908203125 0.95025 Q 5.691090820312501 0.8835000000000001 5.7255908203125 0.8175000000000001 Q 5.7555908203125 0.756 5.7803408203125 0.7020000000000001 Q 5.8050908203125005 0.6480000000000001 5.8050908203125005 0.6120000000000001 Q 5.8050908203125005 0.5760000000000001 5.785590820312501 0.5760000000000001 Q 5.7705908203125 0.5760000000000001 5.745090820312501 0.5940000000000001 Q 5.718090820312501 0.6135 5.6835908203125 0.657 L 5.6550908203125 0.6915 Q 5.649090820312501 0.7005000000000001 5.6423408203125005 0.7095 Q 5.6355908203125 0.7185 5.628090820312501 0.726 Q 5.5860908203125 0.7815000000000001 5.5418408203125 0.84225 Q 5.4975908203125 0.903 5.462340820312501 0.9540000000000001 Q 5.4270908203125 1.0050000000000001 5.4090908203125005 1.0365 Q 5.394090820312501 1.065 5.3715908203125 1.065 Q 5.3565908203125 1.065 5.346090820312501 1.0522500000000001 Q 5.3355908203125 1.0395 5.3355908203125 1.0185 Q 5.3355908203125 1.0065 5.340090820312501 0.9930000000000001 Q 5.370090820312501 0.9375 5.3970908203125 0.8775000000000001 Q 5.4240908203125 0.8175000000000001 5.4495908203125 0.7575000000000001 Q 5.4705908203125 0.7080000000000001 5.4923408203125 0.6607500000000001 Q 5.5140908203125 0.6135 5.535090820312501 0.5715 Q 5.5485908203125005 0.546 5.581590820312501 0.525 Q 5.6145908203125 0.504 5.6415908203125005 0.504 Q 5.671590820312501 0.504 5.671590820312501 0.5265000000000001 Q 5.671590820312501 0.543 5.6565908203125 0.5670000000000001 Q 5.6355908203125 0.6000000000000001 5.600340820312501 0.6592500000000001 Q 5.5650908203125 0.7185 5.535090820312501 0.774 Q 5.5485908203125005 0.756 5.5650908203125 0.7342500000000001 Q 5.581590820312501 0.7125000000000001 5.601090820312501 0.6885000000000001 L 5.649090820312501 0.6315000000000001 Q 5.692590820312501 0.5790000000000001 5.7345908203125004 0.55425 Q 5.7765908203125 0.5295000000000001 5.8185908203125 0.5295000000000001 Q 5.8920908203125 0.5295000000000001 5.8920908203125 0.5970000000000001 Q 5.8920908203125 0.6375000000000001 5.8755908203125005 0.6765000000000001 Q 5.859090820312501 0.7155 5.8485908203125 0.738 Q 5.7810908203125 0.8820000000000001 5.7503408203125 0.9705 Q 5.719590820312501 1.0590000000000002 5.7345908203125004 1.0590000000000002 Q 5.7495908203125 1.0590000000000002 5.7818408203125005 1.03725 Q 5.814090820312501 1.0155 5.860590820312501 0.9765 Q 5.884590820312501 0.9540000000000001 5.908590820312501 0.9285000000000001 Q 5.9325908203125 0.903 5.958090820312501 0.873 Q 5.9685908203125 0.861 5.977590820312501 0.861 Q 5.9880908203125 0.861 5.9880908203125 0.8775000000000001 Q 5.9880908203125 0.894 5.977590820312501 0.9105000000000001 Q 5.9685908203125 0.9255 5.9483408203125006 0.95025 Q 5.928090820312501 0.9750000000000001 5.907090820312501 0.9975 Q 5.833590820312501 1.077 5.7495908203125 1.122 Q 5.7360908203125005 1.1295000000000002 5.7263408203125 1.13325 Q 5.716590820312501 1.137 5.7090908203125 1.1385 Q 5.7030908203125 1.1400000000000001 5.697840820312501 1.1407500000000002 Q 5.692590820312501 1.1415 5.6850908203125 1.1415 M 5.767562255859375 1.8465 Q 5.715062255859375 1.8465 5.679812255859375 1.8135000000000001 Q 5.644562255859375 1.7805 5.644562255859375 1.7205 Q 5.644562255859375 1.6455000000000002 5.694812255859375 1.56075 Q 5.745062255859375 1.476 5.836562255859375 1.389 Q 5.886062255859375 1.341 5.954312255859375 1.28925 Q 6.022562255859375 1.2375 6.093812255859375 1.19025 Q 6.165062255859375 1.143 6.220562255859375 1.1115000000000002 Q 6.255062255859375 1.038 6.2865622558593754 0.9637500000000001 Q 6.318062255859375 0.8895000000000001 6.345062255859375 0.8190000000000001 Q 6.315062255859375 0.8685 6.280562255859375 0.9232500000000001 Q 6.246062255859375 0.9780000000000001 6.206312255859375 1.0245 Q 6.166562255859375 1.0710000000000002 6.1238122558593755 1.0995000000000001 Q 6.081062255859375 1.1280000000000001 6.036062255859375 1.1280000000000001 Q 5.976062255859375 1.1280000000000001 5.952062255859375 1.09125 Q 5.928062255859375 1.0545 5.928062255859375 1.0005000000000002 Q 5.928062255859375 0.9450000000000001 5.946062255859375 0.88275 Q 5.964062255859375 0.8205 5.985062255859375 0.774 Q 6.015062255859375 0.7110000000000001 6.058562255859375 0.64875 Q 6.102062255859375 0.5865 6.154562255859375 0.53625 Q 6.207062255859375 0.4860000000000001 6.261062255859375 0.45525000000000004 Q 6.315062255859375 0.4245000000000001 6.364562255859375 0.4245000000000001 Q 6.448562255859375 0.4245000000000001 6.495812255859375 0.4830000000000001 Q 6.543062255859375 0.5415000000000001 6.543062255859375 0.645 Q 6.543062255859375 0.6735 6.534062255859375 0.69075 Q 6.525062255859375 0.7080000000000001 6.514562255859375 0.7080000000000001 Q 6.4995622558593755 0.7080000000000001 6.4995622558593755 0.6705000000000001 Q 6.502562255859375 0.633 6.491312255859375 0.59325 Q 6.480062255859375 0.5535000000000001 6.456812255859375 0.52575 Q 6.433562255859375 0.498 6.399062255859375 0.49650000000000005 Q 6.346562255859375 0.49350000000000005 6.2865622558593754 0.53625 Q 6.226562255859375 0.5790000000000001 6.172562255859376 0.6585000000000001 Q 6.156062255859375 0.6825000000000001 6.141062255859375 0.7065000000000001 Q 6.126062255859375 0.7305 6.112562255859375 0.7545000000000001 Q 6.058562255859375 0.855 6.039062255859375 0.924 Q 6.0300622558593755 0.9495 6.026312255859375 0.9720000000000001 Q 6.022562255859375 0.9945 6.022562255859375 1.0110000000000001 Q 6.022562255859375 1.065 6.055562255859375 1.065 Q 6.085562255859375 1.065 6.130562255859375 1.02 Q 6.157562255859375 0.9915 6.190562255859375 0.9525000000000001 Q 6.223562255859375 0.9135000000000001 6.255812255859375 0.8722500000000001 Q 6.2880622558593755 0.8310000000000001 6.314312255859375 0.7957500000000001 Q 6.340562255859375 0.7605000000000001 6.355562255859375 0.7410000000000001 Q 6.3585622558593755 0.7365 6.362312255859375 0.7305 Q 6.366062255859375 0.7245 6.372062255859375 0.7170000000000001 Q 6.382562255859375 0.7020000000000001 6.393062255859375 0.669 Q 6.399062255859375 0.6495000000000001 6.408812255859375 0.6405000000000001 Q 6.418562255859375 0.6315000000000001 6.4275622558593755 0.6315000000000001 Q 6.450062255859375 0.6315000000000001 6.450062255859375 0.6675 Q 6.447062255859375 0.6990000000000001 6.4283122558593755 0.7650000000000001 Q 6.409562255859375 0.8310000000000001 6.384812255859375 0.90825 Q 6.360062255859376 0.9855 6.336062255859375 1.0515 Q 6.345062255859375 1.0470000000000002 6.354062255859375 1.0425 Q 6.363062255859375 1.038 6.370562255859375 1.0350000000000001 L 6.408062255859376 1.02 Q 6.411062255859375 1.0185 6.417062255859375 1.0185 Q 6.429062255859375 1.0185 6.435062255859375 1.02525 Q 6.441062255859375 1.032 6.441062255859375 1.0395 Q 6.441062255859375 1.0545 6.426062255859375 1.0590000000000002 Q 6.408062255859376 1.065 6.378812255859375 1.07775 Q 6.349562255859375 1.0905 6.313562255859376 1.11 Q 6.274562255859375 1.2195 6.227312255859375 1.323 Q 6.180062255859375 1.4265 6.136562255859375 1.5015 Q 5.988062255859375 1.7550000000000001 5.862062255859375 1.8210000000000002 Q 5.838062255859375 1.8345000000000002 5.813312255859375 1.8405 Q 5.788562255859375 1.8465 5.767562255859375 1.8465 M 5.758562255859375 1.7970000000000002 Q 5.787062255859375 1.7970000000000002 5.815562255859375 1.7775 Q 5.850062255859375 1.7535 5.8890622558593755 1.707 Q 5.928062255859375 1.6605 5.967062255859375 1.602 Q 6.0060622558593755 1.5435 6.040562255859375 1.48425 Q 6.075062255859375 1.425 6.097562255859375 1.3755000000000002 L 6.186062255859375 1.185 Q 6.138062255859375 1.218 6.085562255859375 1.25475 Q 6.033062255859375 1.2915 5.9820622558593755 1.332 Q 5.932562255859375 1.374 5.881562255859375 1.4235 Q 5.830562255859375 1.473 5.787812255859375 1.5255 Q 5.745062255859375 1.578 5.718812255859375 1.6275 Q 5.692562255859375 1.677 5.692562255859375 1.719 Q 5.692562255859375 1.7565 5.711312255859375 1.77675 Q 5.730062255859375 1.7970000000000002 5.758562255859375 1.7970000000000002 M 6.622542480468749 1.356 Q 6.55954248046875 1.356 6.52579248046875 1.3057500000000002 Q 6.49204248046875 1.2555 6.49204248046875 1.167 Q 6.49204248046875 1.137 6.49654248046875 1.104 Q 6.5070424804687494 1.02 6.54754248046875 0.9315 Q 6.58804248046875 0.8430000000000001 6.65704248046875 0.7545000000000001 Q 6.70654248046875 0.6900000000000001 6.76804248046875 0.65475 Q 6.82954248046875 0.6195 6.88804248046875 0.6195 Q 6.9300424804687495 0.6195 6.96154248046875 0.6360000000000001 Q 7.0005424804687495 0.6585000000000001 7.0005424804687495 0.7125000000000001 Q 7.0005424804687495 0.7515000000000001 6.973542480468749 0.7987500000000001 Q 6.94654248046875 0.8460000000000001 6.880542480468749 0.8895000000000001 Q 6.79654248046875 0.9420000000000001 6.738792480468749 0.96075 Q 6.68104248046875 0.9795 6.646542480468749 0.9825 Q 6.63604248046875 0.9990000000000001 6.6247924804687495 1.03275 Q 6.61354248046875 1.0665 6.60529248046875 1.10325 Q 6.59704248046875 1.1400000000000001 6.59404248046875 1.1685 Q 6.59404248046875 1.1745 6.59329248046875 1.1812500000000001 Q 6.59254248046875 1.1880000000000002 6.59254248046875 1.1955 Q 6.59254248046875 1.2975 6.65704248046875 1.2975 Q 6.69154248046875 1.2975 6.73579248046875 1.272 Q 6.78004248046875 1.2465000000000002 6.82279248046875 1.2105000000000001 Q 6.86554248046875 1.1745 6.89929248046875 1.1407500000000002 Q 6.93304248046875 1.107 6.94654248046875 1.0905 L 7.05754248046875 0.9615 L 7.08754248046875 0.927 Q 7.0950424804687495 0.918 7.10254248046875 0.909 Q 7.11004248046875 0.9 7.1175424804687495 0.8925000000000001 Q 7.12354248046875 0.885 7.13104248046875 0.885 Q 7.14754248046875 0.885 7.14754248046875 0.903 Q 7.14754248046875 0.912 7.13854248046875 0.924 Q 7.12354248046875 0.9450000000000001 7.10479248046875 0.9675 Q 7.08604248046875 0.99 7.0695424804687494 1.0095 L 7.01854248046875 1.0710000000000002 Q 6.98854248046875 1.107 6.9540424804687495 1.14825 Q 6.91954248046875 1.1895 6.88654248046875 1.221 Q 6.74704248046875 1.356 6.622542480468749 1.356 M 6.670542480468749 0.9405000000000001 Q 6.70054248046875 0.933 6.7417924804687495 0.909 Q 6.78304248046875 0.885 6.82129248046875 0.8580000000000001 Q 6.8595424804687495 0.8310000000000001 6.880542480468749 0.8130000000000001 Q 6.91204248046875 0.7875000000000001 6.928542480468749 0.756 Q 6.94504248046875 0.7245 6.94504248046875 0.7020000000000001 Q 6.94504248046875 0.6705000000000001 6.91954248046875 0.6705000000000001 Q 6.9075424804687495 0.6705000000000001 6.89404248046875 0.6765000000000001 Q 6.858042480468749 0.6930000000000001 6.81604248046875 0.7395 Q 6.77404248046875 0.786 6.73579248046875 0.8415000000000001 Q 6.69754248046875 0.897 6.670542480468749 0.9405000000000001 M 7.2210278320312495 1.3920000000000001 Q 7.1265278320312495 1.3920000000000001 7.1265278320312495 1.3005 Q 7.1265278320312495 1.2750000000000001 7.13552783203125 1.242 Q 7.1490278320312495 1.1895 7.17827783203125 1.1295000000000002 Q 7.20752783203125 1.0695000000000001 7.23002783203125 1.0350000000000001 Q 7.24802783203125 1.008 7.2660278320312495 0.9795 Q 7.284027832031249 0.9510000000000001 7.303527832031249 0.921 L 7.377027832031249 0.804 Q 7.396527832031249 0.7710000000000001 7.396527832031249 0.7425 Q 7.396527832031249 0.7095 7.371027832031249 0.6930000000000001 L 7.350027832031249 0.6795 L 7.3380278320312495 0.672 L 7.32152783203125 0.6990000000000001 Q 7.311027832031249 0.7170000000000001 7.30052783203125 0.732 Q 7.26902783203125 0.7755000000000001 7.22852783203125 0.8280000000000001 Q 7.188027832031249 0.8805000000000001 7.1505278320312495 0.9285000000000001 Q 7.11302783203125 0.9765 7.08752783203125 1.0050000000000001 Q 7.0800278320312495 1.0125000000000002 7.072527832031249 1.0125000000000002 Q 7.06502783203125 1.0125000000000002 7.05827783203125 1.0057500000000001 Q 7.051527832031249 0.9990000000000001 7.051527832031249 0.9915 Q 7.051527832031249 0.9855 7.05752783203125 0.9795 Q 7.116027832031249 0.9135000000000001 7.170777832031249 0.8445 Q 7.22552783203125 0.7755000000000001 7.27052783203125 0.6975 L 7.287027832031249 0.669 L 7.303527832031249 0.6420000000000001 Q 7.2915278320312495 0.6315000000000001 7.281777832031249 0.6112500000000001 Q 7.27202783203125 0.5910000000000001 7.27202783203125 0.5730000000000001 Q 7.27202783203125 0.5595 7.278027832031249 0.549 Q 7.284027832031249 0.5385000000000001 7.29902783203125 0.537 L 7.302027832031249 0.537 Q 7.32302783203125 0.537 7.3365278320312495 0.558 Q 7.353027832031249 0.5790000000000001 7.353027832031249 0.6360000000000001 Q 7.372527832031249 0.6495000000000001 7.39202783203125 0.657 Q 7.41152783203125 0.6645000000000001 7.428027832031249 0.6705000000000001 Q 7.45802783203125 0.681 7.47977783203125 0.6945000000000001 Q 7.5015278320312495 0.7080000000000001 7.5015278320312495 0.7455 Q 7.5015278320312495 0.7515000000000001 7.5007778320312495 0.75975 Q 7.5000278320312495 0.768 7.498527832031249 0.7755000000000001 Q 7.492527832031249 0.8055000000000001 7.469277832031249 0.8482500000000001 Q 7.446027832031249 0.891 7.41602783203125 0.9367500000000001 Q 7.38602783203125 0.9825 7.357527832031249 1.0230000000000001 Q 7.34852783203125 1.0350000000000001 7.34102783203125 1.0462500000000001 Q 7.333527832031249 1.0575 7.326027832031249 1.0695000000000001 Q 7.1970278320312495 1.278 7.209027832031249 1.3305 Q 7.212027832031249 1.3395000000000001 7.22252783203125 1.3395000000000001 Q 7.24502783203125 1.3395000000000001 7.27652783203125 1.3215000000000001 Q 7.32152783203125 1.296 7.3605278320312495 1.26525 Q 7.399527832031249 1.2345000000000002 7.44152783203125 1.191 Q 7.471527832031249 1.1625 7.519527832031249 1.107 Q 7.567527832031249 1.0515 7.614027832031249 0.9990000000000001 Q 7.62152783203125 0.9885 7.62977783203125 0.9795 Q 7.638027832031249 0.9705 7.64552783203125 0.9615 Q 7.657527832031249 0.9435 7.67552783203125 0.9255 L 7.705527832031249 0.8925000000000001 Q 7.7115278320312495 0.885 7.71902783203125 0.885 Q 7.7355278320312495 0.885 7.7355278320312495 0.903 Q 7.7355278320312495 0.912 7.726527832031249 0.924 Q 7.7115278320312495 0.9450000000000001 7.69277783203125 0.9675 Q 7.67402783203125 0.99 7.657527832031249 1.0095 Q 7.6425278320312495 1.0275 7.62527783203125 1.0470000000000002 Q 7.608027832031249 1.0665 7.591527832031249 1.0875000000000001 Q 7.540527832031249 1.1475 7.48652783203125 1.20975 Q 7.43252783203125 1.272 7.3845278320312495 1.3155000000000001 Q 7.350027832031249 1.3455000000000001 7.311777832031249 1.3687500000000001 Q 7.27352783203125 1.3920000000000001 7.2210278320312495 1.3920000000000001 M 7.572056396484374 1.3785 Q 7.5120563964843745 1.383 7.478306396484374 1.3567500000000001 Q 7.444556396484374 1.3305 7.444556396484374 1.2945 Q 7.444556396484374 1.2705000000000002 7.460306396484374 1.2457500000000001 Q 7.476056396484374 1.221 7.5105563964843745 1.2015 Q 7.554056396484374 1.1760000000000002 7.6043063964843745 1.161 Q 7.654556396484375 1.1460000000000001 7.707056396484374 1.1340000000000001 Q 7.732556396484374 1.1280000000000001 7.759556396484374 1.12125 Q 7.786556396484374 1.1145 7.812056396484374 1.107 L 7.8390563964843745 1.05 Q 7.855556396484374 1.014 7.872056396484374 0.9577500000000001 Q 7.888556396484375 0.9015000000000001 7.902056396484374 0.8407500000000001 Q 7.915556396484374 0.78 7.921556396484374 0.7335 Q 7.8630563964843745 0.7935000000000001 7.807556396484374 0.8565 Q 7.752056396484374 0.9195000000000001 7.672556396484374 1.0095 Q 7.662056396484374 1.0245 7.6530563964843745 1.0245 Q 7.641056396484374 1.0245 7.641056396484374 1.0065 Q 7.641056396484374 0.9870000000000001 7.660556396484374 0.9630000000000001 L 7.7685563964843745 0.8340000000000001 Q 7.7940563964843745 0.8025 7.823306396484374 0.7710000000000001 Q 7.852556396484374 0.7395 7.8855563964843745 0.7065000000000001 L 7.921556396484374 0.6705000000000001 Q 7.944056396484374 0.5445000000000001 8.014556396484375 0.5445000000000001 Q 8.040056396484374 0.5445000000000001 8.055056396484375 0.55725 Q 8.070056396484373 0.5700000000000001 8.070056396484373 0.5895 Q 8.070056396484373 0.5985 8.068556396484373 0.6030000000000001 L 8.064056396484375 0.6090000000000001 Q 8.053556396484375 0.6120000000000001 8.025056396484374 0.63675 Q 7.996556396484374 0.6615 7.968056396484374 0.687 Q 7.969556396484374 0.7005000000000001 7.970306396484374 0.7155 Q 7.971056396484374 0.7305 7.971056396484374 0.7485 Q 7.971056396484374 0.8190000000000001 7.9575563964843745 0.927 Q 7.951556396484374 0.9600000000000001 7.944806396484374 0.9930000000000001 Q 7.938056396484374 1.026 7.929056396484374 1.0575 Q 7.963556396484374 1.038 7.993556396484374 1.01475 Q 8.023556396484373 0.9915 8.052056396484375 0.9630000000000001 L 8.061056396484375 0.9540000000000001 Q 8.071556396484374 0.9435 8.080556396484374 0.9315 Q 8.089556396484374 0.9195000000000001 8.100056396484375 0.9075000000000001 Q 8.104556396484375 0.9015000000000001 8.112056396484373 0.9015000000000001 Q 8.119556396484374 0.9015000000000001 8.124806396484374 0.90825 Q 8.130056396484374 0.915 8.130056396484374 0.9225000000000001 Q 8.130056396484374 0.93 8.125556396484374 0.9345000000000001 Q 8.097056396484374 0.9750000000000001 8.064056396484375 1.008 Q 8.005556396484375 1.0635000000000001 7.9110563964843745 1.1145 Q 7.813556396484374 1.362 7.572056396484374 1.3785 M 7.539056396484374 1.3290000000000002 Q 7.554056396484374 1.3290000000000002 7.573556396484374 1.3245 Q 7.621556396484374 1.3125 7.6748063964843745 1.2765 Q 7.728056396484374 1.2405000000000002 7.779056396484374 1.1640000000000001 Q 7.750556396484374 1.1715 7.7228063964843745 1.17825 Q 7.695056396484374 1.185 7.666556396484374 1.1925000000000001 Q 7.6050563964843745 1.206 7.539056396484374 1.242 Q 7.515056396484374 1.2555 7.504556396484374 1.27125 Q 7.494056396484374 1.2870000000000001 7.494056396484374 1.2990000000000002 Q 7.494056396484374 1.3290000000000002 7.539056396484374 1.3290000000000002" fill="#1c3423" fill-rule="nonzero"></path></g><g><path d=" M 2.505941584660456 2.657296153846154 Q 2.470172353891225 2.657296153846154 2.445364661583533 2.650661538461539 Q 2.4205569692758404 2.6440269230769236 2.394018507737379 2.6307576923076925 L 2.388249276968148 2.536142307692308 L 2.3974800461989174 2.536142307692308 L 2.425749276968148 2.597296153846154 Q 2.446518507737379 2.6146038461538463 2.4661338923527634 2.622392307692308 Q 2.485749276968148 2.6301807692307695 2.505941584660456 2.6301807692307695 Q 2.5399800461989175 2.6301807692307695 2.5593069692758403 2.612296153846154 Q 2.5786338923527636 2.594411538461539 2.5786338923527636 2.5638346153846157 Q 2.5786338923527636 2.53845 2.5673838923527637 2.5240269230769234 Q 2.5561338923527637 2.5096038461538464 2.5350762000450713 2.4983538461538464 Q 2.514018507737379 2.4871038461538464 2.485172353891225 2.4726807692307697 Q 2.4580569692758405 2.4588346153846157 2.439018507737379 2.445565384615385 Q 2.4199800461989174 2.432296153846154 2.410172353891225 2.4147000000000003 Q 2.4003646615835326 2.3971038461538465 2.4003646615835326 2.370565384615385 Q 2.4003646615835326 2.35095 2.4098838923527635 2.3322000000000003 Q 2.4194031231219943 2.3134500000000005 2.435845430814302 2.298161538461539 Q 2.4522877385066097 2.282873076923077 2.472768507737379 2.2739307692307698 Q 2.493249276968148 2.264988461538462 2.515172353891225 2.264988461538462 Q 2.5417108154296866 2.264988461538462 2.5642108154296865 2.2713346153846157 Q 2.5867108154296865 2.2776807692307695 2.610364661583533 2.289219230769231 L 2.6161338923527637 2.3815269230769234 L 2.6069031231219943 2.3815269230769234 L 2.5803646615835327 2.3209500000000003 Q 2.5601723538912253 2.30595 2.545172353891225 2.299315384615385 Q 2.530172353891225 2.2926807692307696 2.5105569692758403 2.2926807692307696 Q 2.485172353891225 2.2926807692307696 2.4687300461989174 2.309988461538462 Q 2.4522877385066097 2.327296153846154 2.4522877385066097 2.3526807692307696 Q 2.4522877385066097 2.3821038461538464 2.470172353891225 2.398546153846154 Q 2.4880569692758403 2.414988461538462 2.5261338923527634 2.43345 Q 2.5613262000450714 2.450757692307693 2.5838262000450714 2.465469230769231 Q 2.6063262000450713 2.4801807692307696 2.61728773850661 2.499219230769231 Q 2.6282492769681483 2.5182576923076927 2.6282492769681483 2.5476807692307695 Q 2.6282492769681483 2.574796153846154 2.6167108154296868 2.5952769230769235 Q 2.6051723538912253 2.6157576923076924 2.586999276968148 2.6296038461538465 Q 2.5688262000450712 2.6434500000000005 2.547191584660456 2.6503730769230773 Q 2.5255569692758404 2.657296153846154 2.505941584660456 2.657296153846154 M 2.7673023869441096 2.657296153846154 Q 2.740187002328725 2.657296153846154 2.7223023869441096 2.6414307692307695 Q 2.7044177715594944 2.625565384615385 2.7044177715594944 2.597296153846154 Q 2.7044177715594944 2.5690269230769234 2.7254754638671868 2.5482576923076925 Q 2.746533156174879 2.5274884615384616 2.7961485407902638 2.51595 L 2.850956233097956 2.5032576923076926 L 2.850956233097956 2.461142307692308 Q 2.850956233097956 2.4415269230769234 2.8350908484825714 2.427392307692308 Q 2.8192254638671868 2.4132576923076927 2.799033156174879 2.4132576923076927 Q 2.777110079251802 2.4132576923076927 2.768456233097956 2.4250846153846157 Q 2.7598023869441097 2.4369115384615387 2.7598023869441097 2.4565269230769236 L 2.7598023869441097 2.4726807692307697 L 2.756917771559494 2.475565384615385 L 2.7269177715594943 2.475565384615385 Q 2.718263925405648 2.475565384615385 2.7150908484825713 2.4726807692307697 Q 2.711917771559494 2.469796153846154 2.711917771559494 2.4594115384615387 Q 2.711917771559494 2.446719230769231 2.7194177715594945 2.43345 Q 2.7269177715594943 2.4201807692307695 2.7424946946364175 2.410373076923077 Q 2.7586485407902637 2.3999884615384617 2.7762446946364174 2.393065384615385 Q 2.793840848482571 2.386142307692308 2.814033156174879 2.386142307692308 Q 2.8342254638671864 2.386142307692308 2.8535523869441097 2.391911538461539 Q 2.872879310021033 2.3976807692307696 2.8849946946364176 2.4112384615384617 Q 2.897110079251802 2.424796153846154 2.897110079251802 2.4490269230769233 L 2.897110079251802 2.6128730769230772 Q 2.9011485407902637 2.616911538461539 2.9086485407902636 2.619796153846154 Q 2.9161485407902634 2.6226807692307696 2.9294177715594945 2.6226807692307696 L 2.9513408484825714 2.6226807692307696 L 2.9530716177133405 2.6238346153846157 L 2.9530716177133405 2.625565384615385 Q 2.9461485407902637 2.638257692307693 2.932590848482571 2.6477769230769233 Q 2.919033156174879 2.657296153846154 2.899417771559494 2.657296153846154 Q 2.881533156174879 2.657296153846154 2.870283156174879 2.6477769230769233 Q 2.859033156174879 2.638257692307693 2.8544177715594943 2.6226807692307696 L 2.850956233097956 2.6226807692307696 Q 2.835956233097956 2.6376807692307693 2.8137446946364175 2.6474884615384617 Q 2.791533156174879 2.657296153846154 2.7673023869441096 2.657296153846154 M 2.7494177715594943 2.5857576923076926 Q 2.7494177715594943 2.6215269230769236 2.792687002328725 2.6215269230769236 Q 2.8065331561748788 2.6215269230769236 2.8200908484825713 2.618642307692308 Q 2.8336485407902634 2.6157576923076924 2.850956233097956 2.6082576923076926 L 2.850956233097956 2.5228730769230774 Q 2.8048023869441097 2.5315269230769233 2.7834562330979558 2.541046153846154 Q 2.762110079251802 2.550565384615385 2.755763925405648 2.5615269230769235 Q 2.7494177715594943 2.572488461538462 2.7494177715594943 2.5857576923076926 M 3.096156428410456 2.6515269230769234 L 2.990579505333533 2.4190269230769235 L 2.951925659179687 2.401142307692308 L 2.951925659179687 2.391911538461539 L 3.0898102745643024 2.391911538461539 L 3.0898102745643024 2.401142307692308 L 3.04250258225661 2.4184500000000004 L 3.04250258225661 2.4219115384615386 L 3.1163487361027635 2.5828730769230774 L 3.118656428410456 2.5828730769230774 L 3.183848736102764 2.4253730769230772 L 3.183848736102764 2.4219115384615386 L 3.142310274564302 2.401142307692308 L 3.142310274564302 2.391911538461539 L 3.2553871976412254 2.391911538461539 L 3.2553871976412254 2.401142307692308 L 3.2126948899489176 2.4213346153846156 L 3.1082718130258407 2.6515269230769234 L 3.096156428410456 2.6515269230769234 M 3.397299006535456 2.657296153846154 Q 3.3413374680739176 2.657296153846154 3.3090297757662253 2.6232576923076927 Q 3.276722083458533 2.589219230769231 3.276722083458533 2.533257692307693 Q 3.276722083458533 2.489988461538462 3.2937413142277636 2.456815384615385 Q 3.3107605449969943 2.423642307692308 3.3387413142277635 2.404892307692308 Q 3.366722083458533 2.386142307692308 3.3996066988431486 2.386142307692308 Q 3.4451836219200715 2.386142307692308 3.4714336219200717 2.4178730769230774 Q 3.4976836219200713 2.4496038461538463 3.4976836219200713 2.5090269230769233 L 3.494799006535456 2.511911538461539 L 3.322299006535456 2.511911538461539 Q 3.3228759296123793 2.53845 3.3326836219200713 2.561815384615385 Q 3.3424913142277637 2.5851807692307696 3.364125929612379 2.5996038461538467 Q 3.3857605449969945 2.6140269230769233 3.4221066988431486 2.6140269230769233 Q 3.4538374680739174 2.6140269230769233 3.4965297757662253 2.5909500000000003 L 3.4982605449969943 2.5909500000000003 L 3.4982605449969943 2.596719230769231 Q 3.4849913142277638 2.6215269230769236 3.4587413142277637 2.639411538461539 Q 3.4324913142277635 2.657296153846154 3.397299006535456 2.657296153846154 M 3.390375929612379 2.411526923076923 Q 3.3626836219200715 2.411526923076923 3.3450874680739178 2.4308538461538465 Q 3.3274913142277636 2.4501807692307693 3.3234528526893024 2.4853730769230773 L 3.4538374680739174 2.4853730769230773 Q 3.4474913142277637 2.446142307692308 3.431625929612379 2.428834615384616 Q 3.4157605449969948 2.411526923076923 3.390375929612379 2.411526923076923 M 3.7728810002253597 2.657296153846154 Q 3.745765615609975 2.657296153846154 3.7278810002253597 2.6414307692307695 Q 3.7099963848407445 2.625565384615385 3.7099963848407445 2.597296153846154 Q 3.7099963848407445 2.5690269230769234 3.731054077148437 2.5482576923076925 Q 3.7521117694561292 2.5274884615384616 3.801727154071514 2.51595 L 3.8565348463792057 2.5032576923076926 L 3.8565348463792057 2.461142307692308 Q 3.8565348463792057 2.4415269230769234 3.8406694617638215 2.427392307692308 Q 3.824804077148437 2.4132576923076927 3.804611769456129 2.4132576923076927 Q 3.782688692533052 2.4132576923076927 3.774034846379206 2.4250846153846157 Q 3.76538100022536 2.4369115384615387 3.76538100022536 2.4565269230769236 L 3.76538100022536 2.4726807692307697 L 3.7624963848407442 2.475565384615385 L 3.7324963848407444 2.475565384615385 Q 3.723842538686898 2.475565384615385 3.7206694617638214 2.4726807692307697 Q 3.7174963848407443 2.469796153846154 3.7174963848407443 2.4594115384615387 Q 3.7174963848407443 2.446719230769231 3.7249963848407446 2.43345 Q 3.7324963848407444 2.4201807692307695 3.7480733079176676 2.410373076923077 Q 3.7642271540715138 2.3999884615384617 3.7818233079176675 2.393065384615385 Q 3.7994194617638213 2.386142307692308 3.819611769456129 2.386142307692308 Q 3.839804077148437 2.386142307692308 3.85913100022536 2.391911538461539 Q 3.8784579233022827 2.3976807692307696 3.8905733079176676 2.4112384615384617 Q 3.902688692533052 2.424796153846154 3.902688692533052 2.4490269230769233 L 3.902688692533052 2.6128730769230772 Q 3.906727154071514 2.616911538461539 3.9142271540715137 2.619796153846154 Q 3.9217271540715135 2.6226807692307696 3.9349963848407445 2.6226807692307696 L 3.9569194617638215 2.6226807692307696 L 3.9586502309945906 2.6238346153846157 L 3.9586502309945906 2.625565384615385 Q 3.9517271540715138 2.638257692307693 3.938169461763821 2.6477769230769233 Q 3.924611769456129 2.657296153846154 3.9049963848407443 2.657296153846154 Q 3.887111769456129 2.657296153846154 3.875861769456129 2.6477769230769233 Q 3.864611769456129 2.638257692307693 3.8599963848407444 2.6226807692307696 L 3.8565348463792057 2.6226807692307696 Q 3.841534846379206 2.6376807692307693 3.8193233079176676 2.6474884615384617 Q 3.797111769456129 2.657296153846154 3.7728810002253597 2.657296153846154 M 3.7549963848407444 2.5857576923076926 Q 3.7549963848407444 2.6215269230769236 3.798265615609975 2.6215269230769236 Q 3.812111769456129 2.6215269230769236 3.8256694617638214 2.618642307692308 Q 3.8392271540715135 2.6157576923076924 3.8565348463792057 2.6082576923076926 L 3.8565348463792057 2.5228730769230774 Q 3.8103810002253597 2.5315269230769233 3.789034846379206 2.541046153846154 Q 3.767688692533052 2.550565384615385 3.761342538686898 2.5615269230769235 Q 3.7549963848407444 2.572488461538462 3.7549963848407444 2.5857576923076926 M 3.9984658109224753 2.6515269230769234 L 3.9984658109224753 2.642296153846154 L 4.034811964768629 2.6238346153846157 L 4.034811964768629 2.451911538461539 L 4.000196580153244 2.4219115384615386 L 4.000196580153244 2.4178730769230774 L 4.071735041691706 2.386142307692308 L 4.075196580153245 2.386142307692308 L 4.080388887845552 2.428834615384616 L 4.083273503230168 2.428834615384616 Q 4.105196580153245 2.406911538461539 4.125677349384014 2.3965269230769235 Q 4.146158118614783 2.386142307692308 4.170965810922476 2.386142307692308 Q 4.205004272460937 2.386142307692308 4.226638887845552 2.403161538461539 Q 4.248273503230168 2.4201807692307695 4.248273503230168 2.453642307692308 L 4.248273503230168 2.6238346153846157 L 4.2846196570763215 2.642296153846154 L 4.2846196570763215 2.6515269230769234 L 4.161158118614783 2.6515269230769234 L 4.161158118614783 2.642296153846154 L 4.202119657076322 2.6238346153846157 L 4.202119657076322 2.4807576923076926 Q 4.202119657076322 2.455373076923077 4.186254272460937 2.4421038461538465 Q 4.170388887845553 2.428834615384616 4.145004272460937 2.428834615384616 Q 4.129427349384014 2.428834615384616 4.110677349384014 2.4340269230769236 Q 4.091927349384013 2.439219230769231 4.080965810922475 2.4490269230769233 L 4.080965810922475 2.6238346153846157 L 4.121927349384014 2.642296153846154 L 4.121927349384014 2.6515269230769234 L 3.9984658109224753 2.6515269230769234 M 4.3982535024789655 2.3163346153846156 Q 4.383253502478966 2.3163346153846156 4.373445810171273 2.3062384615384617 Q 4.363638117863581 2.2961423076923078 4.363638117863581 2.281719230769231 Q 4.363638117863581 2.266719230769231 4.373445810171273 2.2569115384615386 Q 4.383253502478966 2.2471038461538466 4.3982535024789655 2.2471038461538466 Q 4.413253502478965 2.2471038461538466 4.423061194786658 2.2569115384615386 Q 4.43286888709435 2.266719230769231 4.43286888709435 2.281719230769231 Q 4.43286888709435 2.2961423076923078 4.423061194786658 2.3062384615384617 Q 4.413253502478965 2.3163346153846156 4.3982535024789655 2.3163346153846156 M 4.340561194786658 2.6515269230769234 L 4.340561194786658 2.642296153846154 L 4.376907348632812 2.6238346153846157 L 4.376907348632812 2.451911538461539 L 4.342291964017427 2.4219115384615386 L 4.342291964017427 2.4178730769230774 L 4.419599656325119 2.386142307692308 L 4.423061194786658 2.386142307692308 L 4.423061194786658 2.6238346153846157 L 4.459407348632812 2.642296153846154 L 4.459407348632812 2.6515269230769234 L 4.340561194786658 2.6515269230769234 M 4.523439049353966 2.6515269230769234 L 4.523439049353966 2.642296153846154 L 4.55978520320012 2.6238346153846157 L 4.55978520320012 2.451911538461539 L 4.525169818584735 2.4219115384615386 L 4.525169818584735 2.4178730769230774 L 4.596708280123196 2.386142307692308 L 4.600169818584734 2.386142307692308 L 4.605362126277043 2.428834615384616 L 4.608246741661658 2.428834615384616 Q 4.629592895507812 2.406911538461539 4.6494967416616575 2.3965269230769235 Q 4.669400587815504 2.386142307692308 4.69305443396935 2.386142307692308 Q 4.7207467416616575 2.386142307692308 4.740362126277042 2.398546153846154 Q 4.759977510892427 2.41095 4.765746741661658 2.4357576923076927 L 4.767477510892427 2.4357576923076927 Q 4.7917082801231965 2.410373076923077 4.812765972430888 2.3982576923076926 Q 4.833823664738581 2.386142307692308 4.859208280123196 2.386142307692308 Q 4.891515972430889 2.386142307692308 4.912573664738581 2.403161538461539 Q 4.9336313570462735 2.4201807692307695 4.9336313570462735 2.453642307692308 L 4.9336313570462735 2.6238346153846157 L 4.969977510892427 2.642296153846154 L 4.969977510892427 2.6515269230769234 L 4.846515972430889 2.6515269230769234 L 4.846515972430889 2.642296153846154 L 4.8874775108924275 2.6238346153846157 L 4.8874775108924275 2.4807576923076926 Q 4.8874775108924275 2.455373076923077 4.872189049353966 2.4421038461538465 Q 4.856900587815504 2.428834615384616 4.833246741661658 2.428834615384616 Q 4.813631357046273 2.428834615384616 4.796323664738581 2.4351807692307696 Q 4.779015972430889 2.4415269230769234 4.767477510892427 2.454219230769231 L 4.767477510892427 2.6238346153846157 L 4.807285203200119 2.642296153846154 L 4.807285203200119 2.6515269230769234 L 4.682669818584735 2.6515269230769234 L 4.682669818584735 2.642296153846154 L 4.721323664738581 2.6238346153846157 L 4.721323664738581 2.4807576923076926 Q 4.721323664738581 2.455373076923077 4.70603520320012 2.4421038461538465 Q 4.690746741661658 2.428834615384616 4.667092895507812 2.428834615384616 Q 4.652669818584735 2.428834615384616 4.63478520320012 2.4340269230769236 Q 4.616900587815504 2.439219230769231 4.605939049353966 2.4490269230769233 L 4.605939049353966 2.6238346153846157 L 4.643439049353965 2.642296153846154 L 4.643439049353965 2.6515269230769234 L 4.523439049353966 2.6515269230769234 M 5.084773935171273 2.657296153846154 Q 5.057658550555889 2.657296153846154 5.039773935171273 2.6414307692307695 Q 5.021889319786657 2.625565384615385 5.021889319786657 2.597296153846154 Q 5.021889319786657 2.5690269230769234 5.04294701209435 2.5482576923076925 Q 5.064004704402042 2.5274884615384616 5.113620089017427 2.51595 L 5.16842778132512 2.5032576923076926 L 5.16842778132512 2.461142307692308 Q 5.16842778132512 2.4415269230769234 5.152562396709735 2.427392307692308 Q 5.13669701209435 2.4132576923076927 5.116504704402042 2.4132576923076927 Q 5.0945816274789655 2.4132576923076927 5.085927781325119 2.4250846153846157 Q 5.077273935171273 2.4369115384615387 5.077273935171273 2.4565269230769236 L 5.077273935171273 2.4726807692307697 L 5.074389319786658 2.475565384615385 L 5.044389319786658 2.475565384615385 Q 5.035735473632812 2.475565384615385 5.032562396709735 2.4726807692307697 Q 5.029389319786658 2.469796153846154 5.029389319786658 2.4594115384615387 Q 5.029389319786658 2.446719230769231 5.036889319786658 2.43345 Q 5.044389319786658 2.4201807692307695 5.059966242863581 2.410373076923077 Q 5.076120089017427 2.3999884615384617 5.0937162428635805 2.393065384615385 Q 5.111312396709735 2.386142307692308 5.131504704402042 2.386142307692308 Q 5.15169701209435 2.386142307692308 5.171023935171274 2.391911538461539 Q 5.1903508582481965 2.3976807692307696 5.202466242863581 2.4112384615384617 Q 5.214581627478966 2.424796153846154 5.214581627478966 2.4490269230769233 L 5.214581627478966 2.6128730769230772 Q 5.218620089017427 2.616911538461539 5.226120089017427 2.619796153846154 Q 5.233620089017427 2.6226807692307696 5.246889319786658 2.6226807692307696 L 5.268812396709735 2.6226807692307696 L 5.270543165940504 2.6238346153846157 L 5.270543165940504 2.625565384615385 Q 5.263620089017427 2.638257692307693 5.250062396709735 2.6477769230769233 Q 5.2365047044020425 2.657296153846154 5.216889319786658 2.657296153846154 Q 5.199004704402043 2.657296153846154 5.1877547044020424 2.6477769230769233 Q 5.176504704402042 2.638257692307693 5.171889319786658 2.6226807692307696 L 5.16842778132512 2.6226807692307696 Q 5.153427781325119 2.6376807692307693 5.131216242863581 2.6474884615384617 Q 5.109004704402042 2.657296153846154 5.084773935171273 2.657296153846154 M 5.066889319786658 2.5857576923076926 Q 5.066889319786658 2.6215269230769236 5.110158550555888 2.6215269230769236 Q 5.124004704402043 2.6215269230769236 5.137562396709734 2.618642307692308 Q 5.151120089017427 2.6157576923076924 5.16842778132512 2.6082576923076926 L 5.16842778132512 2.5228730769230774 Q 5.122273935171274 2.5315269230769233 5.10092778132512 2.541046153846154 Q 5.079581627478966 2.550565384615385 5.073235473632812 2.5615269230769235 Q 5.066889319786658 2.572488461538462 5.066889319786658 2.5857576923076926 M 5.3051636211688695 2.6515269230769234 L 5.3051636211688695 2.642296153846154 L 5.341509775015024 2.6238346153846157 L 5.341509775015024 2.2846038461538463 L 5.306894390399639 2.2546038461538465 L 5.306894390399639 2.250565384615385 L 5.384202082707331 2.2188346153846155 L 5.38766362116887 2.2188346153846155 L 5.38766362116887 2.6238346153846157 L 5.424009775015024 2.642296153846154 L 5.424009775015024 2.6515269230769234 L 5.3051636211688695 2.6515269230769234 M 5.57805189866286 2.657296153846154 Q 5.550936514047476 2.657296153846154 5.531321129432091 2.6526807692307695 Q 5.511705744816706 2.6480653846153848 5.491513437124398 2.6376807692307693 L 5.491513437124398 2.573065384615385 L 5.499590360201322 2.573065384615385 L 5.51805189866286 2.6047961538461544 Q 5.535936514047475 2.6365269230769233 5.576321129432091 2.6365269230769233 Q 5.599398052509014 2.6365269230769233 5.612378821739783 2.625565384615385 Q 5.625359590970552 2.6146038461538463 5.625359590970552 2.595565384615385 Q 5.625359590970552 2.578834615384616 5.61728266789363 2.5696038461538464 Q 5.609205744816706 2.560373076923077 5.594494206355168 2.5531615384615387 Q 5.579782667893629 2.5459500000000004 5.559590360201321 2.536719230769231 Q 5.530167283278245 2.5234500000000004 5.51430189866286 2.5075846153846157 Q 5.498436514047476 2.491719230769231 5.498436514047476 2.4628730769230773 Q 5.498436514047476 2.4415269230769234 5.51055189866286 2.424219230769231 Q 5.522667283278245 2.406911538461539 5.5414172832782445 2.3965269230769235 Q 5.560167283278245 2.386142307692308 5.580359590970552 2.386142307692308 Q 5.601705744816706 2.386142307692308 5.619590360201322 2.391334615384616 Q 5.6374749755859375 2.3965269230769235 5.655936514047475 2.4057576923076924 L 5.655936514047475 2.468642307692308 L 5.647859590970553 2.468642307692308 L 5.628821129432091 2.438065384615385 Q 5.619013437124399 2.4224884615384616 5.607474975585937 2.415565384615385 Q 5.595936514047476 2.408642307692308 5.582667283278245 2.408642307692308 Q 5.56305189866286 2.408642307692308 5.551224975585937 2.4184500000000004 Q 5.539398052509014 2.4282576923076924 5.539398052509014 2.445565384615385 Q 5.539398052509014 2.4651807692307695 5.553532667893629 2.4752769230769234 Q 5.567667283278245 2.4853730769230773 5.59478266789363 2.498065384615385 Q 5.610936514047475 2.506142307692308 5.627378821739783 2.514219230769231 Q 5.643821129432091 2.5222961538461544 5.654494206355168 2.5370076923076925 Q 5.665167283278245 2.551719230769231 5.665167283278245 2.578834615384616 Q 5.665167283278245 2.604219230769231 5.651321129432091 2.621815384615385 Q 5.6374749755859375 2.639411538461539 5.61728266789363 2.6483538461538463 Q 5.597090360201322 2.657296153846154 5.57805189866286 2.657296153846154" fill="#67a97b" fill-rule="nonzero"></path></g><g clip-path="url(&quot;#SvgjsClipPath1003&quot;)"><g clip-path="url(&quot;#a&quot;)"><path d=" M 4.633623808179356 -2.369780389372301 C 4.8100884126887955 -2.141279971128365 5.4186250685016715 -1.7465607597614747 5.559753725079778 -1.3356526285660717 C 5.640778999902537 -1.0996224801693417 5.631124810170917 -0.836969357303798 5.852740903703726 -0.7873269220821548 C 5.840424416525225 -1.607906157376429 5.058408156370624 -2.1041422663390437 4.805624358383923 -2.9152286632621145 C 4.694937325137833 -2.775767304074984 4.650054755048492 -2.5426145882723565 4.633623808179356 -2.369780389372301" fill="url(#gradient-08abf296-4bb1-40ff-b436-321b838b399e_0)" transform="matrix(1,0,0,1,0,0)" fill-rule="nonzero"></path></g><g clip-path="url(&quot;#a&quot;)"><path d=" M 3.689207403765003 -2.9893696133737455 C 3.851795791278576 -2.6974312185925102 4.171190809224113 -2.5281198577282256 4.389149605254135 -2.4825112065170085 C 4.029362963417531 -2.8233121716112057 3.668877132352456 -3.461376126380401 4.128271347353179 -4.362308339162362 C 3.301022922495001 -3.9352112881384502 2.6480339668872293 -2.5079778295694988 2.5961326126197473 -1.334388709576138" fill="url(#gradient-08abf296-4bb1-40ff-b436-321b838b399e_1)" transform="matrix(1,0,0,1,0,0)" fill-rule="nonzero"></path></g><g clip-path="url(&quot;#a&quot;)"><path d=" M 7.022511374833883 -1.8128492769994748 C 6.905316503384304 -2.328097954597898 6.739178385941556 -2.8710990661880524 6.711856222244269 -3.4002239607823412 C 6.688917437171647 -3.845042769558725 6.877537177499169 -4.217979547269317 6.9459232624225935 -4.508169968979368 C 6.996883400420975 -4.724219440577788 6.350187147869468 -5.7304871998186755 6.398269853273748 -5.965952618453946 C 6.833999202079971 -6.217848983958353 6.911716774014179 -7.052869166009952 6.883587853514809 -7.134136467873335 C 6.855485824908841 -7.21540376973672 5.992955235906136 -6.453879132355083 5.893428338422223 -6.438389401755047 C 5.778142791404246 -6.420425616961949 5.638143594349059 -6.535738055873329 5.4715214228250595 -6.474343863234644 C 5.557333454673524 -6.6672663065066216 5.53278115599673 -7.221965391727012 5.466304395504908 -7.228419446143694 C 5.407276689485673 -7.234120527545095 4.651668268652663 -6.367905749146201 4.946484096028002 -5.903670993332967 C 4.496098665317231 -6.13356979003385 4.450355554639 -6.4365338611102505 4.794840709129385 -6.476710349854094 C 3.4993506363409494 -6.904667941466896 1.0717118512929302 -5.955491671920241 0.854210217450756 -4.563136999094773 C 1.6293421528942296 -5.975230321677925 3.9521563374579767 -6.101165058483427 4.876511389393812 -5.706257603862715 C 4.705989893326401 -5.563407866106826 4.572095156073658 -5.378284071921673 4.53197245111662 -5.183425412324691 C 4.83076827871558 -5.3390219075535255 5.254665194424554 -5.47993542898441 5.504490884136943 -5.370485422834848 C 5.641316837770594 -5.31057028433332 5.272871006258277 -5.077363784743888 5.1601132972201675 -4.936665398460226 C 5.010943964514611 -4.750546604219167 4.936399636001938 -4.561469701703796 4.970175854115905 -4.451750776620207 C 5.1885380285469695 -4.587796865345177 5.501452100182421 -4.352250771029698 5.402516824353372 -4.133727245238216 C 5.284488304208304 -4.303199957462917 4.926368959762678 -4.2339264400572 4.949845582703357 -4.152148192219162 C 4.973322205644038 -4.070316160594318 5.067981670422036 -3.8183929031965085 5.402839527074205 -3.927251287691207 C 5.368713714346001 -3.815354119241988 5.182675595785151 -3.7188660057125964 5.035119776683764 -3.7313438442515148 C 5.108292618632894 -3.541325725467044 5.2832512771117734 -2.435073906554396 5.657936027893549 -2.1151141588474003 C 5.466546422545534 -2.4326536361481406 5.398321688982528 -3.4761397758585586 5.559511698039154 -3.843563715421568 C 5.750766843920155 -3.554206942407004 5.884069959518035 -3.2926026033841724 6.005917128526305 -2.926415690917694 C 6.070672807840345 -3.098174214081636 6.126204567717211 -3.3908386899847485 6.100011863542845 -3.605301539872401 C 6.595010945408927 -2.3745402545046037 6.464773505658972 -1.2612965433072167 6.515975670697979 -1.0606561266286247 C 6.551822564603966 -0.9202804430657974 6.701502843284176 -0.7534162445011718 6.569087160168589 -0.6396097516203509 C 6.51890688707889 -0.8309724650749635 6.256361331786959 -0.950990985331841 6.323133903106211 -1.227789244127278 C 6.086001187079964 -0.9220821999237874 6.1576680829985335 -0.5031871763877422 6.330878768406229 -0.3024929759223438 C 6.420509449117896 -0.19869026738737983 6.696904329512289 -0.26161729795002575 6.842954202583117 -0.38012987217634375 C 6.932584883294784 -0.45281866004422167 6.9223390719083016 -0.6286109672185898 6.976015291140372 -0.7333280001292506 C 7.02571151014882 -0.8302732758464906 7.184561924479399 -1.0254277462709034 7.198196114434639 -1.0873866686710487 C 7.232079900122218 -1.241477217869324 7.1055535416618545 -1.4478187159493183 7.022511374833883 -1.8128492769994748" fill="url(#gradient-08abf296-4bb1-40ff-b436-321b838b399e_2)" transform="matrix(1,0,0,1,0,0)" fill-rule="nonzero"></path></g></g></g><defs><clipPath id="SvgjsClipPath1003"><path d=" M 0.8542102174507571 -7.228463784196558 h 6.34961545377036 v 6.978463784196558 h -6.34961545377036 Z"></path></clipPath><clipPath id="a"><path d=" M 0.8542102174507565 -0.25 L 7.203816520155833 -0.25 L 7.203816520155833 -7.228446338037097 L 0.8542102174507565 -7.228446338037097 Z"></path></clipPath><linearGradient id="gradient-08abf296-4bb1-40ff-b436-321b838b399e_0" x1="0" x2="1" y1="0" y2="1"><stop stop-color="#396245" offset="0"></stop><stop stop-color="#26452f" offset="1"></stop></linearGradient><linearGradient id="gradient-08abf296-4bb1-40ff-b436-321b838b399e_1" x1="0" x2="1" y1="0" y2="1"><stop stop-color="#4d805c" offset="0"></stop><stop stop-color="#32573d" offset="1"></stop></linearGradient><linearGradient id="gradient-08abf296-4bb1-40ff-b436-321b838b399e_2" x1="0" x2="1" y1="0" y2="1"><stop stop-color="#67a97b" offset="0"></stop><stop stop-color="#1c3423" offset="1"></stop></linearGradient></defs></svg>